<?xml version="1.0" encoding="UTF-8" standalone="no"?>
<svg
   viewBox="0 0 16 16"
   version="1.1"
   id="svg1026"
   sodipodi:docname="measure.svg"
   inkscape:version="1.1 (c4e8f9ed74, 2021-05-24)"
   xmlns:inkscape="http://www.inkscape.org/namespaces/inkscape"
   xmlns:sodipodi="http://sodipodi.sourceforge.net/DTD/sodipodi-0.dtd"
   xmlns="http://www.w3.org/2000/svg"
   xmlns:svg="http://www.w3.org/2000/svg">
  <sodipodi:namedview
     id="namedview1028"
     pagecolor="#ffffff"
     bordercolor="#666666"
     borderopacity="1.0"
     inkscape:pageshadow="2"
     inkscape:pageopacity="0.0"
     inkscape:pagecheckerboard="0"
     showgrid="false"
     inkscape:zoom="41.5625"
     inkscape:cx="2.8511278"
     inkscape:cy="8"
     inkscape:window-width="1920"
     inkscape:window-height="1023"
     inkscape:window-x="0"
     inkscape:window-y="29"
     inkscape:window-maximized="1"
     inkscape:current-layer="svg1026" />
  <defs
     id="defs3051">
    <style
       type="text/css"
       id="current-color-scheme">
      .ColorScheme-Text {
        color:#D2CA9C;
      }
      </style>
  </defs>
  <path
     style="fill:#0000ff;fill-opacity:1;stroke:none"
     d="M 2 3 L 2 4 L 2 8 L 2 9 L 14 9 L 14 8 L 14 4 L 14 3 L 2 3 z M 3 4 L 4 4 L 4 6 L 5 6 L 5 4 L 7 4 L 7 6 L 8 6 L 8 4 L 10 4 L 10 6 L 11 6 L 11 4 L 13 4 L 13 8 L 3 8 L 3 4 z M 5 10 L 2 12 L 5 14 L 5 10 z M 11 10 L 11 14 L 14 12 L 11 10 z "
     class="ColorScheme-Text"
     id="path1024" />
</svg>
