<?xml version="1.0" encoding="UTF-8" standalone="no"?>
<!-- Created with Inkscape (http://www.inkscape.org/) -->

<svg
   width="16"
   height="16"
   viewBox="0 0 4.2333333 4.2333333"
   version="1.1"
   id="svg1"
   inkscape:version="1.3 (0e150ed6c4, 2023-07-21)"
   sodipodi:docname="ptcollab 16x16 final.svg"
   xmlns:inkscape="http://www.inkscape.org/namespaces/inkscape"
   xmlns:sodipodi="http://sodipodi.sourceforge.net/DTD/sodipodi-0.dtd"
   xmlns="http://www.w3.org/2000/svg"
   xmlns:svg="http://www.w3.org/2000/svg">
  <sodipodi:namedview
     id="namedview1"
     pagecolor="#ffffff"
     bordercolor="#000000"
     borderopacity="0.25"
     inkscape:showpageshadow="2"
     inkscape:pageopacity="0.0"
     inkscape:pagecheckerboard="0"
     inkscape:deskcolor="#d1d1d1"
     inkscape:document-units="mm"
     showgrid="true"
     inkscape:zoom="26.5"
     inkscape:cx="7.7358491"
     inkscape:cy="8.0754717"
     inkscape:window-width="1920"
     inkscape:window-height="1051"
     inkscape:window-x="0"
     inkscape:window-y="0"
     inkscape:window-maximized="1"
     inkscape:current-layer="layer1">
    <inkscape:grid
       id="grid1"
       units="px"
       originx="0"
       originy="0"
       spacingx="0.26458333"
       spacingy="0.26458333"
       empcolor="#0099e5"
       empopacity="0.30196078"
       color="#0099e5"
       opacity="0.14901961"
       empspacing="4"
       dotted="false"
       gridanglex="30"
       gridanglez="30"
       visible="true" />
  </sodipodi:namedview>
  <defs
     id="defs1" />
  <g
     inkscape:label="Capa 1"
     inkscape:groupmode="layer"
     id="layer1">
    <path
       id="path60"
       style="fill:#00003e;fill-opacity:1;stroke:none;stroke-width:0;stroke-dasharray:none"
       d="M 0.26458294,0 V 0.26458294 H 0 V 3.9687491 H 0.26458294 V 4.233332 H 3.9687491 V 3.9687491 H 4.233332 V 0.26458294 H 3.9687491 V 0 Z" />
    <path
       id="path61"
       style="opacity:0.75;fill:#000000;fill-opacity:1;stroke:none;stroke-width:0;stroke-linecap:square;stroke-linejoin:round;stroke-dasharray:none;stroke-opacity:0;paint-order:markers stroke fill"
       d="M 1.0583332,1.0583332 V 2.3812494 H 0.52916687 v 0.264583 H 0.26458394 v 0.2645834 h 0.26458293 v 0.264583 H 1.0583332 v -0.264583 h 0.264584 V 2.3812494 1.5874996 H 1.5875001 V 1.3229162 H 1.3229172 v -0.264583 z m 0.5291669,0.5291664 5e-7,0.5291664 h 0.2645825 l -5e-7,-0.5291664 z"
       sodipodi:nodetypes="ccccccccccccccccccccccc" />
    <path
       id="path62"
       style="fill:#ff556f;fill-opacity:1;stroke:none;stroke-width:0;stroke-linecap:square;stroke-linejoin:round;stroke-dasharray:none;stroke-opacity:0;paint-order:markers stroke fill"
       d="M 1.0583332,0.79374981 V 2.116666 H 0.52916687 V 2.3812489 H 0.26458394 V 2.6458324 H 0.52916687 V 2.9104153 H 1.0583332 V 2.6458324 h 0.264584 V 2.116666 1.3229162 H 1.5875001 V 1.0583328 H 1.3229172 V 0.79374981 Z m 0.5291669,0.52916639 5e-7,0.5291664 h 0.2645825 l -5e-7,-0.5291664 z"
       sodipodi:nodetypes="ccccccccccccccccccccccc" />
    <path
       id="path63"
       style="opacity:0.75;fill:#000000;fill-opacity:1;stroke:none;stroke-width:0;stroke-linecap:square;stroke-linejoin:round;stroke-dasharray:none;stroke-opacity:0;paint-order:markers stroke fill"
       d="M 2.116666,1.3229167 V 2.6458329 H 1.5874996 V 2.9104158 H 1.3229172 v 0.2645834 h 0.2645824 v 0.264583 H 2.116666 V 3.1749992 H 2.3812499 V 2.6458329 1.8520831 h 0.264583 V 1.5874996 H 2.3812499 V 1.3229167 Z m 0.5291669,0.5291664 5e-7,0.5291663 h 0.2645824 l -5e-7,-0.5291663 z"
       sodipodi:nodetypes="ccccccccccccccccccccccc" />
    <path
       id="path64"
       style="fill:#6cd2ff;fill-opacity:1;stroke:none;stroke-width:0;stroke-linecap:square;stroke-linejoin:round;stroke-dasharray:none;stroke-opacity:0;paint-order:markers stroke fill"
       d="M 2.116666,1.0583332 V 2.3812494 H 1.5874996 v 0.264583 H 1.3229172 v 0.2645834 h 0.2645824 v 0.264583 H 2.116666 V 2.9104158 H 2.3812499 V 2.3812494 1.5874996 h 0.264583 V 1.3229162 h -0.264583 v -0.264583 z m 0.5291669,0.5291664 5e-7,0.5291664 h 0.2645824 l -5e-7,-0.5291664 z"
       sodipodi:nodetypes="ccccccccccccccccccccccc" />
    <path
       id="path65"
       style="opacity:0.75;fill:#000000;fill-opacity:1;stroke:none;stroke-width:0;stroke-linecap:square;stroke-linejoin:round;stroke-dasharray:none;stroke-opacity:0;paint-order:markers stroke fill"
       d="M 3.1749992,1.5875001 V 2.9104163 H 2.6458329 v 0.2645829 h -0.264583 v 0.2645835 h 0.264583 V 3.7041656 H 3.1749992 V 3.4395827 h 0.264584 V 2.9104163 2.1166665 H 3.7041661 V 1.8520831 H 3.4395832 v -0.264583 z m 0.5291669,0.5291664 5e-7,0.5291664 h 0.2645825 l -5e-7,-0.5291664 z"
       sodipodi:nodetypes="ccccccccccccccccccccccc" />
    <path
       id="path66"
       style="fill:#00f080;fill-opacity:1;stroke:none;stroke-width:0;stroke-linecap:square;stroke-linejoin:round;stroke-dasharray:none;stroke-opacity:0;paint-order:markers stroke fill"
       d="M 3.1749992,1.3229167 V 2.6458329 H 2.6458329 v 0.2645829 h -0.264583 v 0.2645834 h 0.264583 v 0.264583 h 0.5291663 v -0.264583 h 0.264584 V 2.6458329 1.8520831 H 3.7041661 V 1.5874996 H 3.4395832 V 1.3229167 Z m 0.5291669,0.5291664 5e-7,0.5291663 h 0.2645825 l -5e-7,-0.5291663 z"
       sodipodi:nodetypes="ccccccccccccccccccccccc" />
  </g>
</svg>
